<svg width="32" height="31" viewBox="0 0 32 31" fill="none" xmlns="http://www.w3.org/2000/svg">
<mask id="path-1-outside-1_22_6" maskUnits="userSpaceOnUse" x="-0.203247" y="-0.19516" width="33" height="31" fill="black">
<rect fill="white" x="-0.203247" y="-0.19516" width="33" height="31"/>
<path fill-rule="evenodd" clip-rule="evenodd" d="M17.9576 3.55754C16.9113 2.55394 15.2149 2.55394 14.1686 3.55754L11.9155 5.71862H8.54901C7.09919 5.71862 5.92388 6.89393 5.92388 8.34375V11.4657L3.58148 13.7125C2.53517 14.7161 2.53518 16.3433 3.58149 17.3469L5.92388 19.5937V22.5945C5.92388 24.0444 7.09919 25.2197 8.54901 25.2197H11.7893L14.0424 27.3808C15.0887 28.3844 16.7851 28.3844 17.8314 27.3808L20.0845 25.2197H23.4512C24.901 25.2197 26.0763 24.0444 26.0763 22.5945V19.4724L28.4185 17.2258C29.4648 16.2222 29.4648 14.5951 28.4185 13.5915L26.0763 11.3449V8.34375C26.0763 6.89393 24.901 5.71862 23.4512 5.71862H20.2106L17.9576 3.55754Z"/>
</mask>
<path fill-rule="evenodd" clip-rule="evenodd" d="M17.9576 3.55754C16.9113 2.55394 15.2149 2.55394 14.1686 3.55754L11.9155 5.71862H8.54901C7.09919 5.71862 5.92388 6.89393 5.92388 8.34375V11.4657L3.58148 13.7125C2.53517 14.7161 2.53518 16.3433 3.58149 17.3469L5.92388 19.5937V22.5945C5.92388 24.0444 7.09919 25.2197 8.54901 25.2197H11.7893L14.0424 27.3808C15.0887 28.3844 16.7851 28.3844 17.8314 27.3808L20.0845 25.2197H23.4512C24.901 25.2197 26.0763 24.0444 26.0763 22.5945V19.4724L28.4185 17.2258C29.4648 16.2222 29.4648 14.5951 28.4185 13.5915L26.0763 11.3449V8.34375C26.0763 6.89393 24.901 5.71862 23.4512 5.71862H20.2106L17.9576 3.55754Z" fill="#0066FF"/>
<path d="M14.1686 3.55754L15.9858 5.45205V5.45205L14.1686 3.55754ZM17.9576 3.55754L16.1404 5.45205L16.1404 5.45205L17.9576 3.55754ZM11.9155 5.71862V8.34375H12.971L13.7327 7.61313L11.9155 5.71862ZM5.92388 11.4657L7.74106 13.3602L8.54901 12.5853V11.4657H5.92388ZM3.58148 13.7125L5.39867 15.607H5.39867L3.58148 13.7125ZM3.58149 17.3469L1.7643 19.2414H1.7643L3.58149 17.3469ZM5.92388 19.5937H8.54901V18.4741L7.74106 17.6991L5.92388 19.5937ZM11.7893 25.2197L13.6065 23.3252L12.8448 22.5945H11.7893V25.2197ZM14.0424 27.3808L12.2252 29.2753L14.0424 27.3808ZM17.8314 27.3808L19.6486 29.2753L17.8314 27.3808ZM20.0845 25.2197V22.5945H19.029L18.2673 23.3252L20.0845 25.2197ZM26.0763 19.4724L24.2591 17.5779L23.4512 18.3529V19.4724H26.0763ZM28.4185 17.2258L30.2357 19.1203V19.1203L28.4185 17.2258ZM28.4185 13.5915L26.6013 15.486L26.6013 15.486L28.4185 13.5915ZM26.0763 11.3449H23.4512V12.4644L24.2591 13.2394L26.0763 11.3449ZM20.2106 5.71862L18.3934 7.61313L19.1552 8.34375H20.2106V5.71862ZM15.9858 5.45205C15.9897 5.44826 16.0114 5.42997 16.0631 5.42997C16.1148 5.42997 16.1365 5.44826 16.1404 5.45205L19.7748 1.66303C17.7128 -0.314738 14.4133 -0.314734 12.3514 1.66303L15.9858 5.45205ZM13.7327 7.61313L15.9858 5.45205L12.3514 1.66303L10.0984 3.82411L13.7327 7.61313ZM8.54901 8.34375H11.9155V3.09348H8.54901V8.34375ZM8.54901 8.34375L8.54901 8.34375V3.09348C5.64937 3.09348 3.29874 5.44411 3.29874 8.34375H8.54901ZM8.54901 11.4657V8.34375H3.29874V11.4657H8.54901ZM5.39867 15.607L7.74106 13.3602L4.10669 9.57121L1.7643 11.818L5.39867 15.607ZM5.39867 15.4524C5.39513 15.449 5.40308 15.4561 5.41086 15.4745C5.41796 15.4913 5.42189 15.5103 5.42189 15.5297C5.42189 15.5491 5.41796 15.5681 5.41086 15.5849C5.40308 15.6033 5.39513 15.6104 5.39867 15.607L1.7643 11.818C-0.359278 13.8549 -0.359273 17.2045 1.7643 19.2414L5.39867 15.4524ZM7.74106 17.6991L5.39867 15.4524L1.7643 19.2414L4.10669 21.4882L7.74106 17.6991ZM8.54901 22.5945V19.5937H3.29874V22.5945H8.54901ZM8.54901 22.5945L8.54901 22.5945H3.29874C3.29874 25.4942 5.64937 27.8448 8.54901 27.8448V22.5945ZM11.7893 22.5945H8.54901V27.8448H11.7893V22.5945ZM15.8596 25.4863L13.6065 23.3252L9.97212 27.1142L12.2252 29.2753L15.8596 25.4863ZM16.0142 25.4863C16.0103 25.4901 15.9886 25.5084 15.9369 25.5084C15.8852 25.5084 15.8635 25.4901 15.8596 25.4863L12.2252 29.2753C14.2871 31.2531 17.5867 31.2531 19.6486 29.2753L16.0142 25.4863ZM18.2673 23.3252L16.0142 25.4863L19.6486 29.2753L21.9017 27.1142L18.2673 23.3252ZM23.4512 22.5945H20.0845V27.8448H23.4512V22.5945ZM23.4512 22.5945V27.8448C26.3508 27.8448 28.7014 25.4942 28.7014 22.5945H23.4512ZM23.4512 19.4724V22.5945H28.7014V19.4724H23.4512ZM26.6013 15.3313L24.2591 17.5779L27.8935 21.3669L30.2357 19.1203L26.6013 15.3313ZM26.6013 15.486C26.6048 15.4894 26.5969 15.4822 26.5891 15.4638C26.582 15.447 26.5781 15.428 26.5781 15.4086C26.5781 15.3892 26.582 15.3702 26.5891 15.3535C26.5969 15.335 26.6048 15.3279 26.6013 15.3313L30.2357 19.1203C32.3592 17.0834 32.3592 13.7338 30.2357 11.6969L26.6013 15.486ZM24.2591 13.2394L26.6013 15.486L30.2357 11.6969L27.8935 9.45036L24.2591 13.2394ZM23.4512 8.34375V11.3449H28.7014V8.34375H23.4512ZM23.4512 8.34375H28.7014C28.7014 5.44411 26.3508 3.09348 23.4512 3.09348V8.34375ZM20.2106 8.34375H23.4512V3.09348H20.2106V8.34375ZM16.1404 5.45205L18.3934 7.61313L22.0278 3.82411L19.7748 1.66303L16.1404 5.45205Z" fill="#FBFCFE" mask="url(#path-1-outside-1_22_6)"/>
<path d="M20.4274 11.5143L14.5372 19.6694L11.555 16.2949" stroke="#FBFCFE" stroke-width="2.62513" stroke-linecap="round" stroke-linejoin="round"/>
</svg>
